PathFileType	4	(X/Y/Z)	/Users/itak/Documents/Research/Walk-IL/dataset/trc/00314_00010.trc
DataRate	CameraRate	NumFrames	NumMarkers	Units	OrigDataRate	OrigDataStartFrame	OrigNumFrames
100.000000	100.000000	4	55	mm	100.000000	0	543
Frame#	Time	RPSI			LPSI			L3			STRN			T10			C7			CLAV			RBAK			LBAK			LSHO			LUPA			LAEL			LAOL			LWTS			LWPS			LFRA			LIFD			LHPS			LHTS			RSHO			RUPA			RAEL			RAOL			RWTS			RWPS			RFRA			RIFD			RHPS			RBHD			LFHD			RFHD			LBHD			LHIP			RHIP			RASI			LASI			LKNE			LTHI			LANK			LTIP			LTOE			LMT1			LMT5			LHEE			RKNE			RTHI			RANK			RTIP			RTOE			RMT1			RMT5			RHEE			RHTS			*53			*54			
		X1	Y1	Z1	X2	Y2	Z2	X3	Y3	Z3	X4	Y4	Z4	X5	Y5	Z5	X6	Y6	Z6	X7	Y7	Z7	X8	Y8	Z8	X9	Y9	Z9	X10	Y10	Z10	X11	Y11	Z11	X12	Y12	Z12	X13	Y13	Z13	X14	Y14	Z14	X15	Y15	Z15	X16	Y16	Z16	X17	Y17	Z17	X18	Y18	Z18	X19	Y19	Z19	X20	Y20	Z20	X21	Y21	Z21	X22	Y22	Z22	X23	Y23	Z23	X24	Y24	Z24	X25	Y25	Z25	X26	Y26	Z26	X27	Y27	Z27	X28	Y28	Z28	X29	Y29	Z29	X30	Y30	Z30	X31	Y31	Z31	X32	Y32	Z32	X33	Y33	Z33	X34	Y34	Z34	X35	Y35	Z35	X36	Y36	Z36	X37	Y37	Z37	X38	Y38	Z38	X39	Y39	Z39	X40	Y40	Z40	X41	Y41	Z41	X42	Y42	Z42	X43	Y43	Z43	X44	Y44	Z44	X45	Y45	Z45	X46	Y46	Z46	X47	Y47	Z47	X48	Y48	Z48	X49	Y49	Z49	X50	Y50	Z50	X51	Y51	Z51	X52	Y52	Z52	X53	Y53	Z53	X54	Y54	Z54	X55	Y55	Z55	

1	0	-1205.721435546875	1005.450134277344	-668.079345703125	-1195.071533203125	996.5194702148438	-842.2955932617188	-1181.036987304688	1070.394653320312	-757.0416259765625	-933.4119873046875	1253.853637695312	-752.7200927734375	-1194.676147460938	1181.642333984375	-758.1807861328125	-1160.140625	1427.920532226562	-775.530029296875	-996.0510864257812	1355.250366210938	-760.4071044921875	-1209.147338867188	1289.952758789062	-698.1567993164062	-1168.8662109375	1389.196533203125	-879.5576782226562	-1077.210571289062	1401.278686523438	-928.55908203125	-1094.936401367188	1282.240600585938	-1003.165344238281	-1074.42431640625	1078.317993164062	-1015.185424804688	-1136.263671875	1062.333129882812	-956.1189575195312	-983.9259033203125	860.8468627929688	-956.6507568359375	-1012.282287597656	846.3656005859375	-1022.405395507812	-1052.305419921875	974.9541015625	-1021.500549316406	-972.76513671875	675.6708374023438	-954.5382080078125	-1002.743469238281	758.130859375	-1018.264038085938	-934.836669921875	772.8861083984375	-979.9017333984375	-1099.448486328125	1411.68505859375	-613.5867309570312	-1105.953247070312	1353.198120117188	-546.2261962890625	-1093.0029296875	1086.30224609375	-493.8006896972656	-1127.559814453125	1076.333129882812	-582.1361694335938	-974.7342529296875	873.6930541992188	-552.4805908203125	-1012.221862792969	864.076904296875	-477.364013671875	-1062.07177734375	1021.262634277344	-483.02685546875	-952.2774047851562	689.5751342773438	-556.4993286132812	-979.16064453125	755.576416015625	-482.1290893554688	-1148.872192382812	1593.3935546875	-717.0142822265625	-955.8583984375	1633.176879882812	-798.5083618164062	-976.4435424804688	1632.486938476562	-707.8742065429688	-1114.663330078125	1584.327392578125	-858.7526245117188	-1122.603881835938	947.6979370117188	-933.5809326171875	-1108.893920898438	957.2868041992188	-560.0235595703125	-987.2072143554688	961.1587524414062	-625.2081298828125	-985.0557250976562	957.348388671875	-876.3926391601562	-1052.389404296875	482.3054504394531	-893.7324829101562	-1059.4716796875	624.4656372070312	-917.0427856445312	-1172.445434570312	46.86777877807617	-862.170654296875	-1116.555786132812	258.6759033203125	-888.013427734375	-963.1983032226562	39.09583282470703	-811.0603637695312	-1032.44873046875	31.31539535522461	-768.4967651367188	-1051.1181640625	42.10756301879883	-879.5367431640625	-1215.570556640625	44.15189361572266	-799.7235717773438	-1058.377807617188	482.5918884277344	-579.2200317382812	-1043.37841796875	746.8910522460938	-555.4533081054688	-1155.481079101562	47.30598449707031	-592.1480102539062	-1056.176025390625	358.24072265625	-589.3978271484375	-963.4461669921875	44.16693496704102	-646.6690673828125	-1021.949401855469	39.17093658447266	-685.8343505859375	-1051.039794921875	37.40155029296875	-571.5650634765625	-1210.15380859375	40.86209487915039	-638.8995971679688	-933.5537719726562	760.9442138671875	-537.9275512695312	nan	nan	nan	nan	nan	nan	
2	0.01	-1205.466430664062	1005.463012695312	-668.0797729492188	-1194.673706054688	996.4971923828125	-842.2625122070312	-1180.753173828125	1070.365478515625	-757.046142578125	-933.1494140625	1253.914916992188	-752.8031005859375	-1194.375	1181.602783203125	-758.142333984375	-1159.946166992188	1427.895263671875	-775.5489501953125	-995.8912963867188	1355.221313476562	-760.4283447265625	-1208.909423828125	1289.919311523438	-698.1337890625	-1168.702514648438	1389.1650390625	-879.5516967773438	-1077.06982421875	1401.256225585938	-928.5845947265625	-1094.764404296875	1282.219604492188	-1003.163024902344	-1074.094116210938	1078.31689453125	-1015.167419433594	-1135.998046875	1062.274169921875	-956.1134033203125	-983.2615966796875	861.032470703125	-956.5585327148438	-1011.744445800781	846.4609985351562	-1022.325256347656	-1051.892211914062	974.9561767578125	-1021.4775390625	-971.69091796875	675.8875732421875	-954.5145263671875	-1001.875061035156	758.220947265625	-1018.1181640625	-934.1537475585938	773.0133666992188	-979.7495727539062	-1099.203735351562	1411.664306640625	-613.6163940429688	-1105.635864257812	1353.177734375	-546.2640991210938	-1092.639892578125	1086.285034179688	-493.8252258300781	-1127.149291992188	1076.3095703125	-582.0928955078125	-974.3209228515625	873.7378540039062	-552.5492553710938	-1011.772033691406	864.0908813476562	-477.42431640625	-1061.626708984375	1021.260864257812	-483.0268249511719	-951.945068359375	689.5415649414062	-556.6358032226562	-978.6546020507812	755.6058349609375	-482.151123046875	-1148.501098632812	1593.268920898438	-716.8882446289062	-955.72119140625	1633.184326171875	-798.4727783203125	-976.289306640625	1632.433715820312	-707.837158203125	-1114.478515625	1584.339599609375	-858.697265625	-1122.276245117188	947.6728515625	-933.5845336914062	-1108.626831054688	957.3263549804688	-559.9967041015625	-986.74267578125	961.1802978515625	-625.1639404296875	-984.8562622070312	957.3092041015625	-876.3455810546875	-1052.224243164062	482.286865234375	-893.7100219726562	-1059.192993164062	624.411865234375	-917.014404296875	-1172.436889648438	46.87540054321289	-862.1655883789062	-1116.462646484375	258.6766052246094	-887.9990234375	-963.1941528320312	39.10882186889648	-811.0532836914062	-1032.305541992188	31.35883331298828	-768.3260498046875	-1051.110229492188	42.10501861572266	-879.5277709960938	-1215.55517578125	44.14652633666992	-799.7114868164062	-1058.3515625	482.5929565429688	-579.2298583984375	-1043.174926757812	746.8430786132812	-555.4362182617188	-1155.476684570312	47.30502700805664	-592.1463623046875	-1056.175903320312	358.2512817382812	-589.417724609375	-963.4356689453125	44.17459106445312	-646.6546630859375	-1021.95068359375	39.17338180541992	-685.8264770507812	-1051.037475585938	37.40025329589844	-571.5628662109375	-1210.15673828125	40.86259460449219	-638.900634765625	-933.2644653320312	760.9784545898438	-537.9539794921875	nan	nan	nan	nan	nan	nan	
3	0.02	-1205.140747070312	1005.483032226562	-668.07568359375	-1194.219116210938	996.4744873046875	-842.226806640625	-1180.371826171875	1070.33056640625	-757.0473022460938	-932.8206787109375	1253.984008789062	-752.9083862304688	-1194.015014648438	1181.548950195312	-758.1012573242188	-1159.692260742188	1427.862670898438	-775.5744018554688	-995.6646728515625	1355.18701171875	-760.4653930664062	-1208.608032226562	1289.877319335938	-698.1119384765625	-1168.48828125	1389.127075195312	-879.5491333007812	-1076.879638671875	1401.228881835938	-928.6218872070312	-1094.549072265625	1282.18994140625	-1003.166809082031	-1073.707397460938	1078.3115234375	-1015.153686523438	-1135.669921875	1062.20166015625	-956.11083984375	-982.45751953125	861.2662353515625	-956.4578247070312	-1011.087951660156	846.5805053710938	-1022.23388671875	-1051.399169921875	974.95947265625	-1021.453857421875	-970.3441162109375	676.137939453125	-954.49853515625	-1000.859497070312	758.3381958007812	-1017.949340820312	-933.307861328125	773.1837768554688	-979.6173706054688	-1098.877075195312	1411.640625	-613.6546020507812	-1105.242431640625	1353.150146484375	-546.3112182617188	-1092.189331054688	1086.264526367188	-493.849609375	-1126.665893554688	1076.280395507812	-582.0438842773438	-973.8372192382812	873.7649536132812	-552.6123657226562	-1011.243041992188	864.107177734375	-477.4857177734375	-1061.09716796875	1021.257263183594	-483.0226135253906	-951.5167846679688	689.4963989257812	-556.7655029296875	-978.046630859375	755.6429443359375	-482.177490234375	-1148.035522460938	1593.118041992188	-716.7536010742188	-955.520263671875	1633.1962890625	-798.4309692382812	-976.0715942382812	1632.364135742188	-707.7916259765625	-1114.264282226562	1584.352905273438	-858.6304931640625	-1121.85986328125	947.6409912109375	-933.5860595703125	-1108.29345703125	957.375	-559.9727783203125	-986.2048950195312	961.1973876953125	-625.11083984375	-984.576171875	957.2639770507812	-876.29638671875	-1052.020629882812	482.2634582519531	-893.6810913085938	-1058.856689453125	624.3466186523438	-916.976318359375	-1172.4267578125	46.88640213012695	-862.1583251953125	-1116.361206054688	258.68017578125	-887.9807739257812	-963.1890258789062	39.11293411254883	-811.0445556640625	-1032.165649414062	31.40348434448242	-768.1631469726562	-1051.100952148438	42.1031608581543	-879.5181884765625	-1215.540405273438	44.14545822143555	-799.6971435546875	-1058.314819335938	482.5941772460938	-579.2471313476562	-1042.901733398438	746.7921752929688	-555.4088745117188	-1155.470336914062	47.30325317382812	-592.144287109375	-1056.177368164062	358.263671875	-589.4415893554688	-963.4254150390625	44.18916320800781	-646.6331176757812	-1021.952270507812	39.1757698059082	-685.8184204101562	-1051.033447265625	37.39789962768555	-571.5602416992188	-1210.158203125	40.86249160766602	-638.9011840820312	-932.8814697265625	761.0059204101562	-537.985595703125	nan	nan	nan	nan	nan	nan	
4	0.03	-1204.756958007812	1005.511840820312	-668.0657348632812	-1193.74560546875	996.455322265625	-842.192626953125	-1179.90087890625	1070.292114257812	-757.0435791015625	-932.4419555664062	1254.050170898438	-753.0297241210938	-1193.61474609375	1181.4814453125	-758.062744140625	-1159.38427734375	1427.823974609375	-775.6057739257812	-995.367919921875	1355.148803710938	-760.5206909179688	-1208.255859375	1289.828125	-698.0960693359375	-1168.226928710938	1389.08447265625	-879.5525512695312	-1076.641723632812	1401.197631835938	-928.6716918945312	-1094.298828125	1282.150756835938	-1003.180419921875	-1073.288330078125	1078.300170898438	-1015.148803710938	-1135.293579101562	1062.119140625	-956.1132202148438	-981.5718994140625	861.5269775390625	-956.3599243164062	-1010.345031738281	846.7166137695312	-1022.138977050781	-1050.856201171875	974.9649658203125	-1021.432373046875	-968.7940063476562	676.4127807617188	-954.4952392578125	-999.769287109375	758.4788818359375	-1017.771545410156	-932.35986328125	773.3938598632812	-979.5169067382812	-1098.475341796875	1411.615478515625	-613.7005615234375	-1104.787719726562	1353.116821289062	-546.364990234375	-1091.671752929688	1086.242065429688	-493.8706665039062	-1126.138793945312	1076.246826171875	-581.9931030273438	-973.3126831054688	873.7659301757812	-552.6561889648438	-1010.671020507812	864.12353515625	-477.5383605957031	-1060.520141601562	1021.251281738281	-483.015380859375	-951.0126953125	689.4363403320312	-556.8673706054688	-977.3778686523438	755.6829833984375	-482.2027893066406	-1147.500610351562	1592.950927734375	-716.6299438476562	-955.2496337890625	1633.212890625	-798.38623046875	-975.787841796875	1632.279663085938	-707.7392578125	-1114.033203125	1584.367553710938	-858.5571899414062	-1121.380981445312	947.6054077148438	-933.585205078125	-1107.91064453125	957.429931640625	-559.9569702148438	-985.641845703125	961.2034912109375	-625.0546875	-984.2120361328125	957.2173461914062	-876.2531127929688	-1051.790405273438	482.2364807128906	-893.6468505859375	-1058.48388671875	624.2744750976562	-916.9296875	-1172.416137695312	46.90048980712891	-862.1489868164062	-1116.259643554688	258.6864624023438	-887.9599609375	-963.1826171875	39.10499954223633	-811.0345458984375	-1032.04638671875	31.44489479064941	-768.0274047851562	-1051.090576171875	42.10245132446289	-879.5086059570312	-1215.528930664062	44.15035247802734	-799.6818237304688	-1058.266723632812	482.5956726074219	-579.2721557617188	-1042.560180664062	746.7454833984375	-555.3727416992188	-1155.463256835938	47.30105590820312	-592.1422119140625	-1056.180541992188	358.2767944335938	-589.46728515625	-963.4164428710938	44.20923233032227	-646.6062622070312	-1021.9541015625	39.17790603637695	-685.81103515625	-1051.028076171875	37.39461517333984	-571.55712890625	-1210.15771484375	40.86173248291016	-638.9010620117188	-932.4158935546875	761.02099609375	-538.0172729492188	nan	nan	nan	nan	nan	nan	
